<svg xmlns="http://www.w3.org/2000/svg" xmlns:xlink="http://www.w3.org/1999/xlink" width="279" zoomAndPan="magnify" viewBox="0 0 209.25 98.999996" height="132" preserveAspectRatio="xMidYMid meet" version="1.0"><defs><g/><clipPath id="9355369726"><path d="M 0 0.175781 L 208.503906 0.175781 L 208.503906 98.820312 L 0 98.820312 Z M 0 0.175781 " clip-rule="nonzero"/></clipPath><clipPath id="122d8dbb16"><path d="M 81.75 30 L 108.652344 30 L 108.652344 75.070312 L 81.75 75.070312 Z M 81.75 30 " clip-rule="nonzero"/></clipPath></defs><g clip-path="url(#9355369726)"><path fill="transparent" d="M 0 0.175781 L 208.503906 0.175781 L 208.503906 98.824219 L 0 98.824219 Z M 0 0.175781 " fill-opacity="1" fill-rule="nonzero"/></g><path fill="#fbd12f" d="M 98.15625 57.515625 C 98.144531 57.523438 98.132812 57.53125 98.121094 57.535156 C 98.121094 57.535156 98.121094 57.535156 98.117188 57.535156 C 96.324219 58.589844 94.382812 59.417969 92.320312 60.015625 C 92.238281 59.800781 92.152344 59.59375 92.066406 59.394531 C 94.125 58.804688 96.0625 57.980469 97.839844 56.933594 C 97.953125 57.144531 98.058594 57.339844 98.15625 57.515625 " fill-opacity="1" fill-rule="nonzero"/><path fill="#fbd12f" d="M 98.4375 58.019531 C 96.632812 59.199219 94.667969 60.097656 92.5625 60.695312 C 92.558594 60.679688 92.554688 60.667969 92.550781 60.652344 C 92.511719 60.527344 92.46875 60.40625 92.421875 60.285156 C 92.582031 60.238281 92.738281 60.195312 92.898438 60.144531 C 94.617188 59.609375 96.394531 58.824219 98.140625 57.6875 C 98.167969 57.667969 98.195312 57.652344 98.222656 57.632812 C 98.304688 57.78125 98.375 57.910156 98.4375 58.019531 " fill-opacity="1" fill-rule="nonzero"/><path fill="#fbd12f" d="M 98.617188 58.371094 C 96.78125 59.667969 94.785156 60.625 92.648438 61.234375 C 92.648438 61.160156 92.648438 61.089844 92.640625 61.015625 C 94.558594 60.460938 96.554688 59.566406 98.515625 58.171875 C 98.550781 58.238281 98.585938 58.304688 98.617188 58.371094 " fill-opacity="1" fill-rule="nonzero"/><g clip-path="url(#122d8dbb16)"><path fill="#ff8086" d="M 89.332031 60.710938 C 89.503906 60.8125 90.449219 61.238281 91.277344 61.535156 C 90.769531 61.46875 90.261719 61.371094 89.769531 61.226562 C 88.960938 60.992188 88.1875 60.636719 87.492188 60.171875 C 86.792969 59.710938 86.171875 59.140625 85.640625 58.496094 C 85.105469 57.855469 84.65625 57.148438 84.285156 56.402344 C 83.835938 55.503906 83.496094 54.558594 83.246094 53.585938 C 84.449219 56.558594 86.53125 59.054688 89.332031 60.710938 Z M 108.011719 64.238281 C 107.761719 63.339844 107.394531 62.480469 106.996094 61.648438 C 106.59375 60.816406 106.152344 60.003906 105.71875 59.195312 C 105.5 58.789062 105.289062 58.382812 105.085938 57.972656 C 104.878906 57.566406 104.675781 57.152344 104.488281 56.738281 C 104.109375 55.910156 103.78125 55.066406 103.546875 54.195312 C 103.429688 53.761719 103.335938 53.324219 103.265625 52.878906 C 103.191406 52.4375 103.148438 51.992188 103.125 51.542969 C 103.082031 50.644531 103.125 49.742188 103.214844 48.839844 C 103.308594 47.925781 103.402344 47.003906 103.46875 46.078125 C 103.535156 45.152344 103.574219 44.21875 103.550781 43.28125 C 103.523438 42.339844 103.441406 41.390625 103.21875 40.445312 L 103.175781 40.265625 L 103.132812 40.097656 C 103.101562 39.984375 103.074219 39.871094 103.039062 39.757812 C 102.980469 39.53125 102.914062 39.308594 102.84375 39.082031 C 102.730469 38.703125 102.605469 38.320312 102.46875 37.945312 C 102.433594 37.820312 102.394531 37.699219 102.355469 37.574219 C 101.726562 35.613281 100.566406 33.65625 99.050781 32.253906 C 96.058594 29.496094 90.589844 29.546875 87.128906 31.421875 C 85.941406 32.066406 84.9375 33 84.179688 34.113281 C 82.695312 36.308594 82.1875 39.027344 81.96875 41.621094 C 81.808594 43.484375 81.753906 45.378906 81.886719 47.257812 C 81.851562 47.894531 81.851562 48.527344 81.878906 49.160156 C 81.921875 50.027344 82.023438 50.886719 82.179688 51.738281 C 82.5 53.4375 83.039062 55.101562 83.878906 56.617188 C 84.296875 57.371094 84.796875 58.085938 85.378906 58.722656 C 85.960938 59.363281 86.628906 59.921875 87.367188 60.367188 C 88.105469 60.8125 88.910156 61.136719 89.742188 61.335938 C 90.300781 61.472656 90.867188 61.554688 91.4375 61.589844 C 92.035156 61.796875 92.535156 61.914062 92.574219 61.761719 C 92.652344 61.457031 92.6875 61.082031 92.589844 60.777344 C 92.578125 60.734375 92.5625 60.691406 92.550781 60.652344 C 92.214844 59.628906 91.75 58.683594 91.417969 58.066406 C 91.171875 57.613281 91 57.339844 91 57.339844 C 90.925781 57.222656 90.847656 57.097656 90.769531 56.96875 C 90.457031 56.445312 90.117188 55.804688 89.78125 55.039062 C 89.898438 54.980469 90.007812 54.921875 90.097656 54.867188 C 90.152344 54.832031 90.207031 54.800781 90.265625 54.765625 C 90.28125 54.757812 90.296875 54.75 90.3125 54.738281 C 90.355469 54.714844 90.402344 54.6875 90.445312 54.664062 C 90.460938 54.65625 90.476562 54.644531 90.492188 54.636719 C 90.550781 54.605469 90.609375 54.574219 90.667969 54.542969 C 90.679688 54.535156 90.691406 54.53125 90.703125 54.523438 C 90.753906 54.496094 90.804688 54.46875 90.859375 54.441406 C 90.875 54.433594 90.894531 54.421875 90.914062 54.414062 C 90.964844 54.386719 91.019531 54.359375 91.070312 54.335938 C 91.082031 54.328125 91.097656 54.320312 91.109375 54.316406 C 91.171875 54.285156 91.238281 54.25 91.304688 54.21875 C 91.320312 54.210938 91.34375 54.199219 91.363281 54.191406 C 91.410156 54.167969 91.460938 54.144531 91.507812 54.121094 C 91.53125 54.109375 91.554688 54.097656 91.578125 54.085938 C 91.628906 54.0625 91.683594 54.035156 91.734375 54.011719 C 91.894531 53.933594 92.054688 53.855469 92.214844 53.78125 C 92.222656 53.777344 92.230469 53.773438 92.238281 53.769531 C 92.316406 53.730469 92.390625 53.695312 92.464844 53.660156 C 92.46875 53.65625 92.46875 53.65625 92.472656 53.65625 C 92.539062 53.621094 92.609375 53.589844 92.675781 53.558594 C 92.691406 53.550781 92.707031 53.539062 92.722656 53.53125 C 92.785156 53.5 92.847656 53.472656 92.910156 53.4375 C 92.921875 53.433594 92.929688 53.429688 92.941406 53.425781 C 93.011719 53.390625 93.082031 53.355469 93.152344 53.316406 C 93.164062 53.308594 93.179688 53.304688 93.191406 53.296875 C 93.25 53.265625 93.304688 53.238281 93.363281 53.207031 C 93.378906 53.199219 93.398438 53.1875 93.414062 53.179688 C 93.480469 53.144531 93.546875 53.105469 93.613281 53.070312 C 93.617188 53.070312 93.617188 53.070312 93.617188 53.070312 C 94.160156 52.769531 94.664062 52.445312 95.066406 52.089844 C 95.480469 51.726562 95.574219 51.605469 95.828125 51.078125 C 95.46875 51.542969 95.386719 51.609375 95 51.902344 C 94.613281 52.195312 94.109375 52.429688 93.578125 52.664062 C 93.429688 52.726562 93.28125 52.792969 93.128906 52.855469 C 93.125 52.855469 93.121094 52.859375 93.113281 52.859375 C 92.554688 53.089844 91.96875 53.304688 91.417969 53.515625 C 91.382812 53.53125 91.347656 53.542969 91.3125 53.558594 C 91.28125 53.570312 91.253906 53.582031 91.222656 53.59375 C 91.160156 53.617188 91.097656 53.640625 91.039062 53.664062 C 91.023438 53.671875 91.011719 53.675781 90.996094 53.683594 C 90.945312 53.703125 90.894531 53.722656 90.84375 53.746094 C 90.820312 53.753906 90.800781 53.761719 90.78125 53.769531 C 90.730469 53.789062 90.683594 53.808594 90.632812 53.832031 C 90.621094 53.835938 90.605469 53.84375 90.589844 53.847656 C 90.53125 53.875 90.46875 53.898438 90.410156 53.925781 C 90.398438 53.933594 90.382812 53.9375 90.367188 53.945312 C 90.320312 53.964844 90.277344 53.984375 90.230469 54.007812 C 90.214844 54.011719 90.199219 54.019531 90.183594 54.027344 C 90.125 54.054688 90.070312 54.082031 90.015625 54.105469 C 89.425781 54.394531 88.308594 54.707031 87.460938 54.703125 C 87.222656 54.703125 87.007812 54.675781 86.828125 54.621094 C 86.765625 54.601562 86.707031 54.578125 86.648438 54.550781 C 86.625 54.542969 86.597656 54.53125 86.574219 54.519531 C 85.445312 53.996094 85.214844 52.664062 84.796875 51.523438 C 84.1875 49.855469 83.351562 48.015625 83.273438 46.226562 C 83.246094 45.671875 83.441406 45.296875 83.46875 44.746094 C 83.492188 44.269531 83.414062 43.753906 83.292969 43.296875 C 83.21875 43.03125 83.160156 42.757812 83.121094 42.480469 C 83.101562 42.324219 83.027344 41.648438 83.0625 41.414062 C 83.09375 41.222656 83.15625 41.035156 83.183594 40.839844 C 83.296875 40.109375 83.496094 39.324219 83.765625 38.652344 C 83.808594 38.539062 83.855469 38.429688 83.90625 38.324219 C 83.953125 38.21875 84.003906 38.117188 84.058594 38.019531 C 84.589844 37.03125 85.660156 36.507812 86.683594 36.171875 C 86.691406 36.167969 86.699219 36.164062 86.714844 36.160156 C 86.71875 36.160156 86.726562 36.15625 86.734375 36.15625 C 86.738281 36.152344 86.746094 36.152344 86.753906 36.148438 C 86.769531 36.144531 86.785156 36.140625 86.800781 36.136719 C 86.800781 36.136719 86.804688 36.136719 86.808594 36.132812 C 87.070312 36.058594 87.65625 35.894531 88.21875 35.699219 C 88.84375 35.476562 89.441406 35.210938 89.519531 34.976562 C 89.574219 35.320312 89.664062 35.425781 89.820312 35.601562 C 90.085938 35.898438 90.445312 36 90.816406 36.125 C 93.167969 36.925781 94.621094 38.988281 95.9375 40.972656 C 96.371094 41.628906 96.730469 42.339844 96.957031 43.09375 C 97.066406 43.464844 97.164062 43.839844 97.230469 44.222656 C 97.308594 44.265625 97.398438 44.28125 97.476562 44.242188 C 97.539062 44.214844 97.582031 44.15625 97.621094 44.105469 C 98.003906 43.597656 98.363281 43.066406 98.777344 42.582031 C 98.875 42.464844 98.984375 42.34375 99.128906 42.289062 C 99.679688 42.085938 100.148438 42.648438 100.273438 43.113281 C 100.453125 43.785156 100.296875 44.496094 100.125 45.148438 C 99.957031 45.773438 99.738281 46.414062 99.359375 46.941406 C 98.90625 47.574219 98.140625 48.082031 97.378906 47.621094 C 97.351562 47.605469 97.328125 47.585938 97.300781 47.570312 C 97.128906 48.589844 95.722656 49.894531 96.71875 54.078125 C 97.152344 55.910156 98.210938 57.570312 98.515625 58.167969 C 98.847656 58.824219 99.113281 59.363281 99.476562 59.902344 C 99.628906 60.121094 99.796875 60.34375 99.996094 60.574219 C 100.054688 60.644531 100.117188 60.714844 100.179688 60.78125 C 100.359375 60.980469 100.546875 61.167969 100.738281 61.351562 C 101.097656 61.695312 101.472656 62.027344 101.835938 62.363281 C 102.109375 62.617188 102.375 62.875 102.632812 63.144531 C 102.765625 63.285156 102.894531 63.425781 103.019531 63.566406 C 103.632812 64.261719 104.144531 65.003906 104.5625 65.785156 C 104.847656 66.308594 105.085938 66.851562 105.28125 67.414062 C 105.714844 68.644531 105.945312 69.957031 105.988281 71.320312 C 106.03125 72.664062 105.992188 73.949219 106.105469 75.296875 C 106.433594 74.265625 107.203125 70.472656 107.289062 69.667969 C 107.367188 68.925781 107.375 68.175781 107.320312 67.429688 C 107.25 66.492188 107.085938 65.558594 106.851562 64.652344 C 105.90625 60.984375 103.753906 57.78125 102.738281 54.15625 C 102.460938 53.175781 102.386719 52.050781 102.421875 50.921875 C 102.429688 51.144531 102.441406 51.363281 102.457031 51.585938 C 102.496094 52.054688 102.558594 52.523438 102.648438 52.988281 C 102.738281 53.449219 102.847656 53.90625 102.984375 54.355469 C 103.253906 55.257812 103.621094 56.125 104.035156 56.957031 C 104.242188 57.371094 104.457031 57.78125 104.675781 58.1875 C 104.894531 58.59375 105.125 58.996094 105.351562 59.394531 C 105.8125 60.195312 106.273438 60.988281 106.695312 61.796875 C 107.117188 62.609375 107.503906 63.441406 107.769531 64.308594 C 108.046875 65.175781 108.160156 66.085938 108.164062 66.996094 C 108.167969 67.910156 108.058594 68.824219 107.898438 69.730469 C 107.734375 70.632812 107.515625 71.527344 107.289062 72.417969 C 107.542969 71.535156 107.789062 70.648438 107.980469 69.746094 C 108.167969 68.84375 108.308594 67.925781 108.332031 67 C 108.355469 66.074219 108.265625 65.136719 108.011719 64.238281 " fill-opacity="1" fill-rule="nonzero"/></g><path fill="#fbd12f" d="M 98.839844 50.359375 C 98.152344 50.492188 97.488281 50.046875 97.351562 49.359375 C 97.21875 48.671875 97.667969 48.003906 98.355469 47.871094 C 99.039062 47.738281 99.707031 48.183594 99.839844 48.871094 C 99.976562 49.558594 99.527344 50.226562 98.839844 50.359375 Z M 98.332031 47.785156 C 97.226562 48 96.503906 49.074219 96.71875 50.183594 C 96.9375 51.289062 98.007812 52.011719 99.117188 51.796875 C 100.222656 51.578125 100.945312 50.503906 100.730469 49.398438 C 100.511719 48.289062 99.4375 47.566406 98.332031 47.785156 " fill-opacity="1" fill-rule="nonzero"/><g fill="#ff8086" fill-opacity="1"><g transform="translate(26.25143, 65.680436)"><g><path d="M 30.570312 -2.714844 C 30.949219 -4.074219 30.136719 -5.160156 29.15625 -6.082031 C 27.203125 -8.417969 24.921875 -10.589844 22.480469 -12.488281 C 21.285156 -13.410156 20.089844 -14.226562 18.789062 -15.039062 C 18.515625 -15.203125 18.242188 -15.367188 17.917969 -15.527344 L 20.523438 -15.367188 C 21.9375 -15.203125 23.023438 -15.039062 24.269531 -14.933594 C 25.195312 -14.824219 26.007812 -15.3125 26.714844 -15.910156 C 32.199219 -20.089844 16.777344 -29.863281 13.898438 -31.382812 C 12.378906 -32.199219 10.75 -32.90625 9.121094 -33.449219 C 7.601562 -33.992188 5.917969 -34.261719 4.289062 -34.261719 C 2.605469 -34.207031 0.761719 -33.882812 -0.324219 -32.46875 C -1.464844 -30.949219 0 -29.15625 1.085938 -28.125 C 1.519531 -27.800781 1.953125 -27.421875 2.496094 -27.148438 C 2.769531 -24.433594 2.988281 -21.71875 3.203125 -19.003906 C 3.203125 -19.003906 3.257812 -18.949219 3.257812 -18.894531 C 2.335938 -18.460938 1.683594 -17.648438 1.683594 -16.5625 C 1.683594 -15.203125 2.550781 -14.390625 3.691406 -14.0625 C 3.964844 -10.804688 4.234375 -7.546875 4.34375 -4.289062 C 4.289062 -4.234375 4.234375 -4.234375 4.179688 -4.234375 C 3.039062 -4.179688 2.117188 -3.367188 2.117188 -2.171875 C 2.117188 -1.792969 2.226562 -1.410156 2.445312 -1.085938 C 2.445312 -0.976562 2.445312 -0.921875 2.496094 -0.816406 C 2.769531 0.21875 3.746094 0.652344 4.777344 0.488281 C 5.429688 0.324219 6.136719 0.21875 6.839844 0.109375 C 7.003906 0.164062 7.222656 0.164062 7.4375 0.164062 C 7.980469 0.164062 8.46875 0.0546875 8.90625 -0.21875 C 11.945312 -0.597656 14.984375 -0.816406 18.136719 -0.652344 C 20.363281 -0.597656 22.589844 -0.21875 24.867188 -0.273438 C 26.878906 -0.324219 29.863281 -0.433594 30.570312 -2.714844 Z M 19.003906 -20.960938 C 17.484375 -21.011719 15.964844 -21.011719 14.390625 -20.960938 C 12.652344 -20.90625 10.859375 -20.742188 9.066406 -20.46875 C 8.796875 -22.859375 8.46875 -25.195312 7.980469 -27.527344 C 8.035156 -27.527344 8.089844 -27.527344 8.144531 -27.527344 L 9.011719 -27.367188 C 9.503906 -27.257812 9.992188 -27.09375 10.480469 -26.933594 C 11.945312 -26.441406 13.628906 -25.464844 15.148438 -24.433594 C 15.691406 -24.054688 16.234375 -23.566406 16.941406 -22.96875 C 17.648438 -22.316406 18.351562 -21.664062 19.003906 -20.960938 Z M 21.9375 -6.679688 C 22.695312 -6.082031 23.402344 -5.375 24.054688 -4.667969 C 23.132812 -4.886719 22.207031 -5.050781 21.230469 -5.160156 C 19.058594 -5.484375 16.886719 -5.59375 14.714844 -5.539062 C 13.519531 -5.484375 12.269531 -5.375 11.023438 -5.210938 C 10.914062 -6.296875 10.75 -7.382812 10.640625 -8.46875 L 9.992188 -13.304688 C 10.152344 -13.304688 10.316406 -13.25 10.425781 -13.195312 C 12.542969 -12.597656 14.605469 -11.566406 16.507812 -10.535156 C 18.460938 -9.449219 20.253906 -8.144531 21.9375 -6.679688 Z M 21.9375 -6.679688 "/></g></g></g><g fill="#ff8086" fill-opacity="1"><g transform="translate(50.62937, 65.680436)"><g><path d="M 1.25 -28.667969 C 1.140625 -28.5625 1.140625 -28.398438 1.25 -28.34375 C 2.445312 -28.886719 3.636719 -29.375 4.886719 -29.753906 C 8.46875 -31.003906 12.164062 -31.820312 15.855469 -32.632812 C 17.972656 -33.121094 20.144531 -33.664062 22.261719 -34.207031 C 21.773438 -34.207031 21.285156 -34.207031 20.796875 -34.152344 C 18.460938 -33.992188 16.234375 -33.554688 14.007812 -33.121094 L 12.761719 -32.796875 C 8.851562 -31.765625 4.832031 -30.570312 1.25 -28.667969 Z M 31.710938 -6.570312 C 32.363281 -7.058594 32.796875 -7.820312 32.742188 -8.796875 C 32.523438 -11.890625 31.492188 -16.667969 27.3125 -15.800781 C 26.714844 -15.636719 26.171875 -15.367188 25.574219 -15.203125 L 23.457031 -14.550781 C 22.152344 -14.117188 20.851562 -13.628906 19.546875 -13.140625 C 18.734375 -12.867188 17.917969 -12.542969 17.105469 -12.21875 L 12.488281 -10.425781 C 11.292969 -9.9375 10.097656 -9.449219 8.90625 -8.90625 L 8.742188 -8.796875 C 8.742188 -8.90625 8.742188 -8.960938 8.742188 -9.011719 L 8.417969 -12.542969 C 9.9375 -13.304688 11.402344 -14.0625 12.976562 -14.714844 C 15.527344 -15.800781 18.082031 -16.613281 20.6875 -17.320312 C 21.992188 -17.648438 23.347656 -17.917969 24.652344 -18.136719 C 25.898438 -18.40625 27.09375 -18.351562 28.234375 -18.894531 C 29.210938 -19.382812 29.863281 -20.578125 29.648438 -21.609375 C 29.539062 -22.152344 29.210938 -22.695312 28.722656 -22.96875 C 28.667969 -22.96875 28.667969 -22.96875 28.613281 -23.023438 C 28.5625 -23.238281 28.453125 -23.457031 28.34375 -23.675781 C 28.289062 -23.78125 28.234375 -23.945312 28.125 -24.109375 C 27.367188 -25.410156 26.0625 -25.464844 24.707031 -25.410156 C 24.054688 -25.355469 23.457031 -25.304688 22.804688 -25.195312 L 22.097656 -25.03125 C 20.363281 -24.542969 18.570312 -24.054688 16.832031 -23.621094 C 13.738281 -22.480469 10.75 -21.175781 7.710938 -19.875 C 7.710938 -20.144531 7.382812 -22.097656 7.332031 -22.640625 L 7.4375 -22.75 C 9.121094 -23.457031 10.859375 -24.109375 12.597656 -24.707031 C 13.195312 -24.976562 18.570312 -26.605469 21.339844 -27.367188 C 21.449219 -27.367188 21.554688 -27.421875 21.664062 -27.476562 C 22.914062 -27.800781 24.164062 -28.179688 25.355469 -28.5625 L 28.070312 -29.375 C 28.289062 -30.460938 28.125 -31.601562 27.746094 -32.742188 C 27.476562 -32.957031 27.148438 -33.230469 26.878906 -33.449219 L 26.007812 -33.773438 C 25.683594 -33.882812 25.304688 -33.9375 24.921875 -33.992188 C 22.097656 -33.230469 19.277344 -32.46875 16.398438 -31.820312 C 12.707031 -31.058594 9.011719 -30.242188 5.429688 -28.996094 C 4.289062 -28.613281 3.09375 -28.179688 1.953125 -27.691406 C 1.902344 -27.527344 1.792969 -27.367188 1.738281 -27.257812 C 0.976562 -26.605469 0.488281 -25.792969 0.378906 -24.707031 C 0.273438 -23.78125 0.597656 -22.75 1.25 -22.046875 L 1.902344 -15.855469 L 2.550781 -9.339844 C 2.714844 -7.4375 2.824219 -5.484375 3.148438 -3.636719 C 2.660156 -2.226562 3.582031 -0.597656 4.941406 -0.0546875 C 4.886719 0.21875 4.886719 0.433594 4.996094 0.707031 C 5.429688 1.628906 6.40625 1.683594 7.277344 1.519531 C 7.492188 1.519531 7.820312 1.464844 7.820312 1.464844 C 7.765625 1.519531 10.859375 0.597656 11.511719 0.164062 L 11.566406 0.109375 C 12.164062 -0.164062 12.761719 -0.378906 13.355469 -0.652344 C 13.464844 -0.707031 13.628906 -0.761719 13.738281 -0.816406 L 13.792969 -0.816406 C 15.582031 -1.574219 17.429688 -2.226562 19.277344 -2.878906 C 23.132812 -4.234375 27.148438 -5.265625 31.167969 -6.027344 C 31.492188 -6.082031 31.65625 -6.296875 31.710938 -6.570312 Z M 18.570312 -18.082031 L 18.625 -17.917969 C 18.296875 -17.808594 18.027344 -17.699219 17.699219 -17.539062 C 14.984375 -16.453125 12.164062 -15.421875 9.503906 -14.0625 C 9.9375 -14.441406 10.261719 -14.984375 10.371094 -15.582031 C 11.402344 -15.855469 12.433594 -16.179688 13.519531 -16.507812 C 15.203125 -17.050781 16.886719 -17.539062 18.570312 -18.082031 Z M 6.570312 0.707031 C 7.65625 0.433594 8.6875 0 9.71875 -0.378906 C 10.75 -0.707031 11.726562 -1.085938 12.707031 -1.464844 L 12.707031 -1.359375 C 11.890625 -0.921875 11.078125 -0.488281 10.207031 -0.0546875 C 9.828125 0.164062 9.394531 0.378906 8.960938 0.597656 C 8.90625 0.652344 8.851562 0.652344 8.796875 0.652344 C 8.632812 0.707031 7.382812 0.816406 6.570312 0.707031 Z M 6.570312 0.707031 "/></g></g></g><g fill="#ff8086" fill-opacity="1"><g transform="translate(78.269682, 65.680436)"><g/></g></g><g fill="#ff8086" fill-opacity="1"><g transform="translate(84.187322, 65.680436)"><g/></g></g><g fill="#ff8086" fill-opacity="1"><g transform="translate(90.104962, 65.680436)"><g/></g></g><g fill="#ff8086" fill-opacity="1"><g transform="translate(96.022603, 65.680436)"><g/></g></g><g fill="#ff8086" fill-opacity="1"><g transform="translate(101.944087, 65.680436)"><g><path d="M 26.171875 -10.480469 C 27.421875 -14.824219 27.636719 -19.382812 27.421875 -23.890625 L 27.421875 -26.0625 C 27.421875 -27.367188 27.203125 -28.667969 27.09375 -29.972656 C 26.933594 -31.980469 26.714844 -34.585938 24.269531 -34.859375 C 23.675781 -34.914062 23.183594 -34.316406 23.183594 -33.773438 L 23.183594 -33.230469 C 21.828125 -33.992188 19.875 -32.90625 19.925781 -31.277344 C 19.980469 -26.390625 20.035156 -21.554688 19.710938 -16.722656 C 19.601562 -14.878906 19.710938 -11.457031 18.460938 -9.609375 C 17.699219 -8.960938 16.777344 -8.523438 15.746094 -8.308594 C 14.769531 -8.363281 13.953125 -8.796875 13.195312 -9.394531 C 11.726562 -13.304688 10.75 -17.375 10.480469 -21.554688 C 10.371094 -23.566406 10.371094 -25.628906 10.535156 -27.691406 C 10.640625 -29.375 11.511719 -31.382812 10.914062 -33.011719 C 10.425781 -34.207031 9.285156 -35.128906 7.980469 -35.292969 C 4.722656 -35.78125 3.039062 -32.46875 2.445312 -29.753906 C 0.816406 -22.75 1.085938 -15.148438 3.746094 -8.417969 C 4.074219 -7.601562 4.832031 -7.332031 5.484375 -7.382812 C 6.082031 -6.136719 6.839844 -4.941406 7.765625 -3.855469 C 10.480469 -0.707031 15.527344 1.304688 19.277344 -1.085938 C 20.199219 -1.519531 21.175781 -2.390625 21.664062 -2.933594 C 21.773438 -3.039062 21.882812 -3.148438 22.046875 -3.257812 C 24.109375 -5.160156 25.355469 -7.820312 26.171875 -10.480469 Z M 10.316406 -29.59375 C 9.503906 -24.8125 9.554688 -19.925781 10.425781 -15.148438 C 10.371094 -15.203125 10.316406 -15.203125 10.261719 -15.203125 C 10.097656 -15.855469 9.9375 -16.5625 9.828125 -17.265625 C 9.121094 -20.851562 9.121094 -24.597656 9.554688 -28.289062 C 9.773438 -28.722656 9.882812 -29.210938 9.992188 -29.699219 C 10.046875 -29.59375 10.207031 -29.539062 10.316406 -29.59375 Z M 10.316406 -29.59375 "/></g></g></g><g fill="#ff8086" fill-opacity="1"><g transform="translate(124.693182, 65.680436)"><g><path d="M 31.003906 -31.980469 C 32.308594 -32.523438 32.363281 -34.585938 31.113281 -35.292969 C 31.003906 -35.402344 30.894531 -35.457031 30.785156 -35.511719 C 30.894531 -35.566406 31.058594 -35.566406 31.167969 -35.566406 C 31.710938 -35.671875 31.546875 -36.597656 31.058594 -36.542969 C 30.242188 -36.433594 29.429688 -36.378906 28.613281 -36.269531 C 28.289062 -36.324219 27.964844 -36.269531 27.691406 -36.269531 C 27.148438 -36.214844 26.605469 -36.164062 26.007812 -36.054688 C 18.460938 -35.402344 10.859375 -35.238281 3.257812 -35.671875 C 3.09375 -35.726562 3.039062 -35.402344 3.203125 -35.402344 C 6.136719 -34.914062 9.066406 -34.585938 12 -34.425781 C 12 -34.371094 11.945312 -34.316406 11.945312 -34.261719 C 8.960938 -34.261719 6.027344 -34.480469 3.039062 -34.75 C 1.847656 -34.859375 0.761719 -33.828125 0.433594 -32.742188 C 0.109375 -31.4375 0.761719 -30.136719 1.847656 -29.539062 C 2.171875 -28.667969 2.878906 -27.910156 3.582031 -27.421875 C 4.5625 -26.824219 5.753906 -26.660156 6.894531 -26.496094 C 8.308594 -26.390625 9.773438 -26.335938 11.238281 -26.335938 C 11.945312 -26.335938 12.652344 -26.335938 13.355469 -26.335938 L 13.355469 -24.597656 L 13.25 -22.207031 C 13.140625 -19.382812 12.976562 -16.5625 12.8125 -13.792969 C 12.707031 -11.023438 12.652344 -8.199219 12.8125 -5.429688 C 12.921875 -3.3125 13.410156 -0.816406 15.691406 -0.109375 C 16.832031 0.21875 18.191406 -0.433594 18.570312 -1.628906 C 18.949219 -2.714844 19.003906 -4.234375 19.222656 -5.210938 L 19.222656 -3.148438 C 19.167969 -2.390625 19.167969 -1.628906 19.113281 -0.867188 L 19.113281 -0.761719 C 20.089844 -1.519531 20.308594 -2.824219 20.417969 -4.125 C 20.363281 -6.027344 20.253906 -7.925781 20.199219 -9.828125 C 20.199219 -13.140625 20.144531 -16.453125 20.144531 -19.765625 C 20.144531 -22.152344 20.199219 -24.542969 20.199219 -26.933594 C 22.96875 -27.3125 25.683594 -27.800781 28.453125 -28.34375 C 28.613281 -28.34375 28.722656 -28.453125 28.832031 -28.5625 C 29.105469 -28.613281 29.429688 -28.722656 29.648438 -28.886719 C 30.515625 -29.484375 30.734375 -30.460938 30.785156 -31.4375 C 30.894531 -31.601562 30.949219 -31.765625 31.003906 -31.980469 Z M 6.894531 -27.800781 C 5.59375 -27.855469 4.179688 -28.234375 3.3125 -29.050781 C 5.429688 -28.398438 7.601562 -28.019531 9.773438 -27.800781 C 8.796875 -27.746094 7.820312 -27.746094 6.894531 -27.800781 Z M 6.894531 -27.800781 "/></g></g></g><g fill="#ff8086" fill-opacity="1"><g transform="translate(151.242928, 65.680436)"><g><path d="M 31.277344 -31.167969 C 31.4375 -31.382812 31.4375 -31.65625 31.382812 -31.871094 C 32.089844 -33.011719 31.980469 -34.480469 31.003906 -35.457031 C 30.242188 -36.214844 28.886719 -36.542969 27.855469 -36.109375 C 27.636719 -36.164062 27.421875 -36.109375 27.203125 -35.890625 C 25.25 -34.261719 23.945312 -32.035156 22.535156 -29.917969 C 22.425781 -29.808594 20.089844 -26.117188 20.035156 -26.0625 C 20.035156 -26.0625 19.65625 -26.390625 19.601562 -26.335938 C 19.601562 -26.335938 19.601562 -26.390625 19.65625 -26.390625 C 19.875 -26.824219 20.089844 -27.257812 20.363281 -27.636719 C 21.992188 -30.242188 23.726562 -32.742188 25.519531 -35.238281 C 25.847656 -35.621094 25.464844 -36.054688 25.03125 -36.109375 C 24.976562 -36.324219 24.597656 -36.433594 24.433594 -36.269531 C 23.457031 -35.347656 22.695312 -34.042969 21.992188 -32.957031 C 21.175781 -31.710938 20.417969 -30.515625 19.601562 -29.265625 L 18.296875 -27.148438 C 15.746094 -28.832031 13.03125 -30.296875 10.261719 -31.65625 C 8.523438 -32.523438 6.679688 -33.285156 4.832031 -34.042969 C 3.964844 -34.480469 2.988281 -34.914062 2.0625 -34.914062 L 1.683594 -34.914062 C 1.519531 -34.914062 1.304688 -34.859375 1.085938 -34.804688 C 0.0546875 -34.535156 -0.652344 -32.414062 0.21875 -31.710938 C 0.109375 -31.546875 0.0546875 -31.328125 0 -31.058594 C -0.273438 -29.320312 1.683594 -28.179688 2.878906 -27.367188 C 2.933594 -27.3125 3.039062 -27.257812 3.09375 -27.257812 L 3.257812 -26.933594 C 3.746094 -26.714844 4.234375 -26.496094 4.667969 -26.226562 C 5.160156 -25.953125 5.648438 -25.683594 6.191406 -25.464844 C 6.351562 -25.410156 6.515625 -25.304688 6.679688 -25.195312 C 8.742188 -24.054688 10.695312 -22.695312 12.761719 -21.503906 C 13.03125 -21.339844 13.847656 -20.851562 14.714844 -20.417969 C 13.898438 -18.949219 13.140625 -17.539062 12.378906 -16.070312 C 12.378906 -16.019531 12.324219 -15.964844 12.269531 -15.855469 L 11.023438 -13.953125 C 10.75 -13.519531 10.589844 -12.976562 10.640625 -12.488281 C 9.609375 -10.261719 8.632812 -8.035156 7.65625 -5.753906 C 7.601562 -4.996094 7.492188 -4.234375 7.492188 -3.476562 C 8.144531 -5.050781 8.851562 -6.625 9.609375 -8.199219 C 10.046875 -9.175781 10.535156 -10.152344 11.023438 -11.078125 C 11.078125 -10.914062 11.183594 -10.804688 11.292969 -10.640625 C 10.804688 -9.664062 10.371094 -8.632812 9.882812 -7.65625 C 9.230469 -6.191406 8.46875 -4.667969 7.980469 -3.148438 C 7.277344 -0.816406 9.9375 0.542969 11.621094 -0.273438 C 11.621094 -0.164062 11.726562 -0.0546875 11.890625 -0.0546875 C 12.976562 -0.164062 13.628906 -0.921875 14.171875 -1.792969 C 15.039062 -3.09375 15.691406 -4.617188 16.398438 -5.972656 C 17.808594 -8.851562 19.332031 -11.726562 20.90625 -14.496094 L 22.261719 -16.941406 C 23.132812 -16.886719 23.890625 -17.050781 24.488281 -17.59375 C 24.707031 -17.808594 24.8125 -18.082031 24.867188 -18.40625 C 24.921875 -18.460938 25.03125 -18.460938 25.085938 -18.515625 C 26.226562 -19.4375 25.953125 -20.960938 25.410156 -22.152344 C 25.519531 -22.371094 25.683594 -22.589844 25.847656 -22.804688 C 27.582031 -25.628906 29.648438 -28.289062 31.277344 -31.167969 Z M 31.277344 -31.167969 "/></g></g></g></svg>